<svg xmlns="http://www.w3.org/2000/svg" viewBox="-9.90 -8.64 34.80 34.60">
  <defs>
    <radialGradient id="hl0" cx="0.000" cy="0.000" r="10.340" fx="-0.470" fy="-0.940" gradientUnits="userSpaceOnUse">
      <stop offset="0" stop-color="white" stop-opacity="0.3"/>
      <stop offset="1" stop-color="white" stop-opacity="0"/>
    </radialGradient>
    <radialGradient id="hl1" cx="0.000" cy="17.321" r="10.340" fx="-0.470" fy="16.381" gradientUnits="userSpaceOnUse">
      <stop offset="0" stop-color="white" stop-opacity="0.3"/>
      <stop offset="1" stop-color="white" stop-opacity="0"/>
    </radialGradient>
    <radialGradient id="hl2" cx="15.000" cy="8.660" r="10.340" fx="14.530" fy="7.720" gradientUnits="userSpaceOnUse">
      <stop offset="0" stop-color="white" stop-opacity="0.3"/>
      <stop offset="1" stop-color="white" stop-opacity="0"/>
    </radialGradient>
  </defs>
  <path d="M8.695,-1.221A1.410,1.410 0 0 1 8.695,1.221L5.405,6.920A1.410,1.410 0 0 1 3.290,8.141L-3.290,8.141A1.410,1.410 0 0 1 -5.405,6.920L-8.695,1.221A1.410,1.410 0 0 1 -8.695,-1.221L-5.405,-6.920A1.410,1.410 0 0 1 -3.290,-8.141L3.290,-8.141A1.410,1.410 0 0 1 5.405,-6.920Z" fill="#4ECDC4"/>
  <path d="M8.695,-1.221A1.410,1.410 0 0 1 8.695,1.221L5.405,6.920A1.410,1.410 0 0 1 3.290,8.141L-3.290,8.141A1.410,1.410 0 0 1 -5.405,6.920L-8.695,1.221A1.410,1.410 0 0 1 -8.695,-1.221L-5.405,-6.920A1.410,1.410 0 0 1 -3.290,-8.141L3.290,-8.141A1.410,1.410 0 0 1 5.405,-6.920Z" fill="url(#hl0)"/>
  <line x1="3.886" y1="8.141" x2="-3.886" y2="8.141" stroke="black" stroke-opacity="0.25" stroke-width="0.651"/>
  <path d="M8.695,16.099A1.410,1.410 0 0 1 8.695,18.542L5.405,24.240A1.410,1.410 0 0 1 3.290,25.461L-3.290,25.461A1.410,1.410 0 0 1 -5.405,24.240L-8.695,18.542A1.410,1.410 0 0 1 -8.695,16.099L-5.405,10.401A1.410,1.410 0 0 1 -3.290,9.180L3.290,9.180A1.410,1.410 0 0 1 5.405,10.401Z" fill="#FF6B6B"/>
  <path d="M8.695,16.099A1.410,1.410 0 0 1 8.695,18.542L5.405,24.240A1.410,1.410 0 0 1 3.290,25.461L-3.290,25.461A1.410,1.410 0 0 1 -5.405,24.240L-8.695,18.542A1.410,1.410 0 0 1 -8.695,16.099L-5.405,10.401A1.410,1.410 0 0 1 -3.290,9.180L3.290,9.180A1.410,1.410 0 0 1 5.405,10.401Z" fill="url(#hl1)"/>
  <line x1="3.886" y1="25.461" x2="-3.886" y2="25.461" stroke="black" stroke-opacity="0.25" stroke-width="0.651"/>
  <path d="M23.695,7.439A1.410,1.410 0 0 1 23.695,9.881L20.405,15.580A1.410,1.410 0 0 1 18.290,16.801L11.710,16.801A1.410,1.410 0 0 1 9.595,15.580L6.305,9.881A1.410,1.410 0 0 1 6.305,7.439L9.595,1.741A1.410,1.410 0 0 1 11.710,0.520L18.290,0.520A1.410,1.410 0 0 1 20.405,1.741Z" fill="#FFE066"/>
  <path d="M23.695,7.439A1.410,1.410 0 0 1 23.695,9.881L20.405,15.580A1.410,1.410 0 0 1 18.290,16.801L11.710,16.801A1.410,1.410 0 0 1 9.595,15.580L6.305,9.881A1.410,1.410 0 0 1 6.305,7.439L9.595,1.741A1.410,1.410 0 0 1 11.710,0.520L18.290,0.520A1.410,1.410 0 0 1 20.405,1.741Z" fill="url(#hl2)"/>
  <line x1="18.886" y1="16.801" x2="11.114" y2="16.801" stroke="black" stroke-opacity="0.25" stroke-width="0.651"/>
</svg>
