<svg xmlns="http://www.w3.org/2000/svg" viewBox="0 0 70 70">
  <defs>
    <radialGradient id="sheen" cx="0.38" cy="0.26" r="0.95">
      <stop offset="0" stop-color="white" stop-opacity="0.3"/>
      <stop offset="1" stop-color="white" stop-opacity="0"/>
    </radialGradient>
  </defs>
  <path d="M37.296,14.795Q38.800,17.400 37.296,20.005L30.904,31.076Q29.400,33.681 26.392,33.681L13.608,33.681Q10.600,33.681 9.096,31.076L2.704,20.005Q1.200,17.400 2.704,14.795L9.096,3.724Q10.600,1.119 13.608,1.119L26.392,1.119Q29.400,1.119 30.904,3.724Z" fill="#4ECDC4"/>
  <path d="M37.296,14.795Q38.800,17.400 37.296,20.005L30.904,31.076Q29.400,33.681 26.392,33.681L13.608,33.681Q10.600,33.681 9.096,31.076L2.704,20.005Q1.200,17.400 2.704,14.795L9.096,3.724Q10.600,1.119 13.608,1.119L26.392,1.119Q29.400,1.119 30.904,3.724Z" fill="url(#sheen)"/>
  <line x1="12.104" y1="33.681" x2="27.896" y2="33.681" stroke="black" stroke-opacity="0.22" stroke-width="1.504"/>
  <path d="M37.296,49.436Q38.800,52.041 37.296,54.646L30.904,65.717Q29.400,68.322 26.392,68.322L13.608,68.322Q10.600,68.322 9.096,65.717L2.704,54.646Q1.200,52.041 2.704,49.436L9.096,38.365Q10.600,35.760 13.608,35.760L26.392,35.760Q29.400,35.760 30.904,38.365Z" fill="#FF6B6B"/>
  <path d="M37.296,49.436Q38.800,52.041 37.296,54.646L30.904,65.717Q29.400,68.322 26.392,68.322L13.608,68.322Q10.600,68.322 9.096,65.717L2.704,54.646Q1.200,52.041 2.704,49.436L9.096,38.365Q10.600,35.760 13.608,35.760L26.392,35.760Q29.400,35.760 30.904,38.365Z" fill="url(#sheen)"/>
  <line x1="12.104" y1="68.322" x2="27.896" y2="68.322" stroke="black" stroke-opacity="0.22" stroke-width="1.504"/>
  <path d="M67.296,32.116Q68.800,34.721 67.296,37.326L60.904,48.397Q59.400,51.002 56.392,51.002L43.608,51.002Q40.600,51.002 39.096,48.397L32.704,37.326Q31.200,34.721 32.704,32.116L39.096,21.044Q40.600,18.439 43.608,18.439L56.392,18.439Q59.400,18.439 60.904,21.044Z" fill="#FFE066"/>
  <path d="M67.296,32.116Q68.800,34.721 67.296,37.326L60.904,48.397Q59.400,51.002 56.392,51.002L43.608,51.002Q40.600,51.002 39.096,48.397L32.704,37.326Q31.200,34.721 32.704,32.116L39.096,21.044Q40.600,18.439 43.608,18.439L56.392,18.439Q59.400,18.439 60.904,21.044Z" fill="url(#sheen)"/>
  <line x1="42.104" y1="51.002" x2="57.896" y2="51.002" stroke="black" stroke-opacity="0.22" stroke-width="1.504"/>
</svg>
